# xmcd
#
# Track frame offsets:
# 150
# 13556
# 20656
# 31854
# 44392
# 57334
# 70202
# 83532
# 95755
# 108064
# 120460
# 133065
# 142284
# 155497
# 165774
#
# Disc length: 2371 seconds
#
#
# Revision: 0
# Processed by: cddbd v1.5.2PL0 Copyright (c) Steve Scherf et al.
# Submitted via: FreeRIP 2.951 
#
DISCID=be09410f
DTITLE=Jilguerillas - Mis 30 Mejores Canciones Disc 2
DYEAR=1900
DGENRE=latin
TTITLE0=Los Compromisos
TTITLE1=Sembré Una Flor
TTITLE2=Soy Pasajero
TTITLE3=El Desclazo
TTITLE4=Me Importa Poco
TTITLE5=Carta Jugada
TTITLE6=Busca Otro Amor
TTITLE7=Mientras Tenga Corazón
TTITLE8=La Paseada
TTITLE9=Hay un Ser
TTITLE10=El Bandolero
TTITLE11=Madre Abandonada
TTITLE12=Los Pilares de la Cárcel
TTITLE13=De Mañana en Adelante
TTITLE14=Anda Paloma y Dile
EXTD=
EXTT0=
EXTT1=
EXTT2=
EXTT3=
EXTT4=
EXTT5=
EXTT6=
EXTT7=
EXTT8=
EXTT9=
EXTT10=
EXTT11=
EXTT12=
EXTT13=
EXTT14=
PLAYORDER=
